<mxfile host="app.diagrams.net" agent="Mozilla/5.0 (Windows NT 10.0; Win64; x64) AppleWebKit/537.36 (KHTML, like Gecko) Chrome/131.0.0.0 Safari/537.36" version="24.8.6">
  <diagram name="Page-1" id="L9ll3vKJpi7Wh85XUpI4">
    <mxGraphModel dx="2022" dy="1089" grid="1" gridSize="10" guides="1" tooltips="1" connect="1" arrows="1" fold="1" page="1" pageScale="1" pageWidth="850" pageHeight="1100" math="0" shadow="0">
      <root>
        <mxCell id="0" />
        <mxCell id="1" parent="0" />
        <mxCell id="QXE9mCimsEVIW5E-7dzx-143" value="Start Program" style="whiteSpace=wrap;strokeWidth=2;" vertex="1" parent="1">
          <mxGeometry x="155" y="200" width="159" height="49" as="geometry" />
        </mxCell>
        <mxCell id="QXE9mCimsEVIW5E-7dzx-144" value="Initialize Board" style="whiteSpace=wrap;strokeWidth=2;" vertex="1" parent="1">
          <mxGeometry x="150" y="299" width="169" height="49" as="geometry" />
        </mxCell>
        <mxCell id="QXE9mCimsEVIW5E-7dzx-145" value="Place Mines" style="whiteSpace=wrap;strokeWidth=2;" vertex="1" parent="1">
          <mxGeometry x="85" y="398" width="143" height="49" as="geometry" />
        </mxCell>
        <mxCell id="QXE9mCimsEVIW5E-7dzx-146" value="Calculate Adjacent Mines" style="whiteSpace=wrap;strokeWidth=2;" vertex="1" parent="1">
          <mxGeometry x="36" y="497" width="241" height="49" as="geometry" />
        </mxCell>
        <mxCell id="QXE9mCimsEVIW5E-7dzx-147" value="Enter Game Loop" style="whiteSpace=wrap;strokeWidth=2;" vertex="1" parent="1">
          <mxGeometry x="65" y="596" width="184" height="49" as="geometry" />
        </mxCell>
        <mxCell id="QXE9mCimsEVIW5E-7dzx-148" value="Is Window Open?" style="rhombus;strokeWidth=2;whiteSpace=wrap;" vertex="1" parent="1">
          <mxGeometry x="72" y="695" width="169" height="169" as="geometry" />
        </mxCell>
        <mxCell id="QXE9mCimsEVIW5E-7dzx-149" value="Exit Program" style="whiteSpace=wrap;strokeWidth=2;" vertex="1" parent="1">
          <mxGeometry x="29" y="1625" width="151" height="49" as="geometry" />
        </mxCell>
        <mxCell id="QXE9mCimsEVIW5E-7dzx-150" value="Poll Events" style="whiteSpace=wrap;strokeWidth=2;" vertex="1" parent="1">
          <mxGeometry x="172" y="936" width="138" height="49" as="geometry" />
        </mxCell>
        <mxCell id="QXE9mCimsEVIW5E-7dzx-151" value="Event Type?" style="rhombus;strokeWidth=2;whiteSpace=wrap;" vertex="1" parent="1">
          <mxGeometry x="119" y="1035" width="133" height="133" as="geometry" />
        </mxCell>
        <mxCell id="QXE9mCimsEVIW5E-7dzx-152" value="MouseClick" style="whiteSpace=wrap;strokeWidth=2;" vertex="1" parent="1">
          <mxGeometry x="636" y="1240" width="140" height="49" as="geometry" />
        </mxCell>
        <mxCell id="QXE9mCimsEVIW5E-7dzx-153" value="KeyPress" style="whiteSpace=wrap;strokeWidth=2;" vertex="1" parent="1">
          <mxGeometry x="128" y="1240" width="121" height="49" as="geometry" />
        </mxCell>
        <mxCell id="QXE9mCimsEVIW5E-7dzx-154" value="Mouse Button Type?" style="rhombus;strokeWidth=2;whiteSpace=wrap;" vertex="1" parent="1">
          <mxGeometry x="611" y="1362" width="190" height="190" as="geometry" />
        </mxCell>
        <mxCell id="QXE9mCimsEVIW5E-7dzx-155" value="Uncover Tile" style="whiteSpace=wrap;strokeWidth=2;" vertex="1" parent="1">
          <mxGeometry x="576" y="1625" width="150" height="49" as="geometry" />
        </mxCell>
        <mxCell id="QXE9mCimsEVIW5E-7dzx-156" value="Toggle Flag" style="whiteSpace=wrap;strokeWidth=2;" vertex="1" parent="1">
          <mxGeometry x="690" y="1968" width="141" height="49" as="geometry" />
        </mxCell>
        <mxCell id="QXE9mCimsEVIW5E-7dzx-157" value="Is Tile a Mine?" style="rhombus;strokeWidth=2;whiteSpace=wrap;" vertex="1" parent="1">
          <mxGeometry x="577" y="1747" width="148" height="148" as="geometry" />
        </mxCell>
        <mxCell id="QXE9mCimsEVIW5E-7dzx-158" value="Set Game Over" style="whiteSpace=wrap;strokeWidth=2;" vertex="1" parent="1">
          <mxGeometry x="90" y="1968" width="168" height="49" as="geometry" />
        </mxCell>
        <mxCell id="QXE9mCimsEVIW5E-7dzx-159" value="Uncover Tile(s)" style="whiteSpace=wrap;strokeWidth=2;" vertex="1" parent="1">
          <mxGeometry x="881" y="1968" width="168" height="49" as="geometry" />
        </mxCell>
        <mxCell id="QXE9mCimsEVIW5E-7dzx-160" value="Return to Game Loop" style="whiteSpace=wrap;strokeWidth=2;" vertex="1" parent="1">
          <mxGeometry x="757" y="2067" width="212" height="49" as="geometry" />
        </mxCell>
        <mxCell id="QXE9mCimsEVIW5E-7dzx-161" value="Key Pressed?" style="rhombus;strokeWidth=2;whiteSpace=wrap;" vertex="1" parent="1">
          <mxGeometry x="119" y="1388" width="139" height="139" as="geometry" />
        </mxCell>
        <mxCell id="QXE9mCimsEVIW5E-7dzx-162" value="Restart Game" style="whiteSpace=wrap;strokeWidth=2;" vertex="1" parent="1">
          <mxGeometry x="369" y="1625" width="157" height="49" as="geometry" />
        </mxCell>
        <mxCell id="QXE9mCimsEVIW5E-7dzx-163" value="Display Game Over Message" style="whiteSpace=wrap;strokeWidth=2;" vertex="1" parent="1">
          <mxGeometry x="124" y="2067" width="258" height="49" as="geometry" />
        </mxCell>
        <mxCell id="QXE9mCimsEVIW5E-7dzx-164" value="" style="curved=1;startArrow=none;endArrow=block;exitX=0.5;exitY=1;entryX=0.5;entryY=0;rounded=0;" edge="1" parent="1" source="QXE9mCimsEVIW5E-7dzx-143" target="QXE9mCimsEVIW5E-7dzx-144">
          <mxGeometry relative="1" as="geometry">
            <Array as="points" />
          </mxGeometry>
        </mxCell>
        <mxCell id="QXE9mCimsEVIW5E-7dzx-165" value="" style="curved=1;startArrow=none;endArrow=block;exitX=0.27;exitY=1;entryX=0.5;entryY=0;rounded=0;" edge="1" parent="1" source="QXE9mCimsEVIW5E-7dzx-144" target="QXE9mCimsEVIW5E-7dzx-145">
          <mxGeometry relative="1" as="geometry">
            <Array as="points">
              <mxPoint x="157" y="373" />
            </Array>
          </mxGeometry>
        </mxCell>
        <mxCell id="QXE9mCimsEVIW5E-7dzx-166" value="" style="curved=1;startArrow=none;endArrow=block;exitX=0.5;exitY=0.99;entryX=0.5;entryY=-0.01;rounded=0;" edge="1" parent="1" source="QXE9mCimsEVIW5E-7dzx-145" target="QXE9mCimsEVIW5E-7dzx-146">
          <mxGeometry relative="1" as="geometry">
            <Array as="points" />
          </mxGeometry>
        </mxCell>
        <mxCell id="QXE9mCimsEVIW5E-7dzx-167" value="" style="curved=1;startArrow=none;endArrow=block;exitX=0.5;exitY=0.99;entryX=0.5;entryY=-0.01;rounded=0;" edge="1" parent="1" source="QXE9mCimsEVIW5E-7dzx-146" target="QXE9mCimsEVIW5E-7dzx-147">
          <mxGeometry relative="1" as="geometry">
            <Array as="points" />
          </mxGeometry>
        </mxCell>
        <mxCell id="QXE9mCimsEVIW5E-7dzx-168" value="" style="curved=1;startArrow=none;endArrow=block;exitX=0.5;exitY=0.99;entryX=0.5;entryY=0;rounded=0;" edge="1" parent="1" source="QXE9mCimsEVIW5E-7dzx-147" target="QXE9mCimsEVIW5E-7dzx-148">
          <mxGeometry relative="1" as="geometry">
            <Array as="points" />
          </mxGeometry>
        </mxCell>
        <mxCell id="QXE9mCimsEVIW5E-7dzx-169" value="No" style="curved=1;startArrow=none;endArrow=block;exitX=0;exitY=0.94;entryX=0.28;entryY=-0.01;rounded=0;" edge="1" parent="1" source="QXE9mCimsEVIW5E-7dzx-148" target="QXE9mCimsEVIW5E-7dzx-149">
          <mxGeometry relative="1" as="geometry">
            <Array as="points">
              <mxPoint x="20" y="900" />
              <mxPoint x="20" y="1588" />
            </Array>
          </mxGeometry>
        </mxCell>
        <mxCell id="QXE9mCimsEVIW5E-7dzx-170" value="Yes" style="curved=1;startArrow=none;endArrow=block;exitX=0.85;exitY=1;entryX=0.5;entryY=0;rounded=0;" edge="1" parent="1" source="QXE9mCimsEVIW5E-7dzx-148" target="QXE9mCimsEVIW5E-7dzx-150">
          <mxGeometry relative="1" as="geometry">
            <Array as="points">
              <mxPoint x="241" y="900" />
            </Array>
          </mxGeometry>
        </mxCell>
        <mxCell id="QXE9mCimsEVIW5E-7dzx-171" value="" style="curved=1;startArrow=none;endArrow=block;exitX=0.3;exitY=1;entryX=0.5;entryY=0;rounded=0;" edge="1" parent="1" source="QXE9mCimsEVIW5E-7dzx-150" target="QXE9mCimsEVIW5E-7dzx-151">
          <mxGeometry relative="1" as="geometry">
            <Array as="points">
              <mxPoint x="185" y="1010" />
            </Array>
          </mxGeometry>
        </mxCell>
        <mxCell id="QXE9mCimsEVIW5E-7dzx-172" value="Close Event" style="curved=1;startArrow=none;endArrow=block;exitX=0.01;exitY=1;entryX=0.44;entryY=-0.01;rounded=0;" edge="1" parent="1" source="QXE9mCimsEVIW5E-7dzx-151" target="QXE9mCimsEVIW5E-7dzx-149">
          <mxGeometry relative="1" as="geometry">
            <Array as="points">
              <mxPoint x="84" y="1204" />
              <mxPoint x="84" y="1588" />
            </Array>
          </mxGeometry>
        </mxCell>
        <mxCell id="QXE9mCimsEVIW5E-7dzx-173" value="Mouse Click" style="curved=1;startArrow=none;endArrow=block;exitX=1;exitY=0.6;entryX=0.5;entryY=0.01;rounded=0;" edge="1" parent="1" source="QXE9mCimsEVIW5E-7dzx-151" target="QXE9mCimsEVIW5E-7dzx-152">
          <mxGeometry relative="1" as="geometry">
            <Array as="points">
              <mxPoint x="706" y="1204" />
            </Array>
          </mxGeometry>
        </mxCell>
        <mxCell id="QXE9mCimsEVIW5E-7dzx-174" value="Key Press" style="curved=1;startArrow=none;endArrow=block;exitX=0.51;exitY=1;entryX=0.5;entryY=0.01;rounded=0;" edge="1" parent="1" source="QXE9mCimsEVIW5E-7dzx-151" target="QXE9mCimsEVIW5E-7dzx-153">
          <mxGeometry relative="1" as="geometry">
            <Array as="points">
              <mxPoint x="188" y="1204" />
            </Array>
          </mxGeometry>
        </mxCell>
        <mxCell id="QXE9mCimsEVIW5E-7dzx-175" value="" style="curved=1;startArrow=none;endArrow=block;exitX=0.5;exitY=1.01;entryX=0.5;entryY=0;rounded=0;" edge="1" parent="1" source="QXE9mCimsEVIW5E-7dzx-152" target="QXE9mCimsEVIW5E-7dzx-154">
          <mxGeometry relative="1" as="geometry">
            <Array as="points" />
          </mxGeometry>
        </mxCell>
        <mxCell id="QXE9mCimsEVIW5E-7dzx-176" value="Left Click" style="curved=1;startArrow=none;endArrow=block;exitX=0.29;exitY=1;entryX=0.5;entryY=-0.01;rounded=0;" edge="1" parent="1" source="QXE9mCimsEVIW5E-7dzx-154" target="QXE9mCimsEVIW5E-7dzx-155">
          <mxGeometry relative="1" as="geometry">
            <Array as="points">
              <mxPoint x="651" y="1588" />
            </Array>
          </mxGeometry>
        </mxCell>
        <mxCell id="QXE9mCimsEVIW5E-7dzx-177" value="Right Click" style="curved=1;startArrow=none;endArrow=block;exitX=0.71;exitY=1;entryX=0.5;entryY=0;rounded=0;" edge="1" parent="1" source="QXE9mCimsEVIW5E-7dzx-154" target="QXE9mCimsEVIW5E-7dzx-156">
          <mxGeometry relative="1" as="geometry">
            <Array as="points">
              <mxPoint x="761" y="1588" />
            </Array>
          </mxGeometry>
        </mxCell>
        <mxCell id="QXE9mCimsEVIW5E-7dzx-178" value="" style="curved=1;startArrow=none;endArrow=block;exitX=0.5;exitY=0.99;entryX=0.5;entryY=0;rounded=0;" edge="1" parent="1" source="QXE9mCimsEVIW5E-7dzx-155" target="QXE9mCimsEVIW5E-7dzx-157">
          <mxGeometry relative="1" as="geometry">
            <Array as="points" />
          </mxGeometry>
        </mxCell>
        <mxCell id="QXE9mCimsEVIW5E-7dzx-179" value="Yes" style="curved=1;startArrow=none;endArrow=block;exitX=0;exitY=0.61;entryX=0.5;entryY=0;rounded=0;" edge="1" parent="1" source="QXE9mCimsEVIW5E-7dzx-157" target="QXE9mCimsEVIW5E-7dzx-158">
          <mxGeometry relative="1" as="geometry">
            <Array as="points">
              <mxPoint x="174" y="1931" />
            </Array>
          </mxGeometry>
        </mxCell>
        <mxCell id="QXE9mCimsEVIW5E-7dzx-180" value="No" style="curved=1;startArrow=none;endArrow=block;exitX=1;exitY=0.67;entryX=0.5;entryY=0;rounded=0;" edge="1" parent="1" source="QXE9mCimsEVIW5E-7dzx-157" target="QXE9mCimsEVIW5E-7dzx-159">
          <mxGeometry relative="1" as="geometry">
            <Array as="points">
              <mxPoint x="965" y="1931" />
            </Array>
          </mxGeometry>
        </mxCell>
        <mxCell id="QXE9mCimsEVIW5E-7dzx-181" value="" style="curved=1;startArrow=none;endArrow=block;exitX=0.5;exitY=0.99;entryX=0.26;entryY=-0.01;rounded=0;" edge="1" parent="1" source="QXE9mCimsEVIW5E-7dzx-156" target="QXE9mCimsEVIW5E-7dzx-160">
          <mxGeometry relative="1" as="geometry">
            <Array as="points">
              <mxPoint x="761" y="2042" />
            </Array>
          </mxGeometry>
        </mxCell>
        <mxCell id="QXE9mCimsEVIW5E-7dzx-182" value="" style="curved=1;startArrow=none;endArrow=block;exitX=0.5;exitY=0.99;entryX=0.74;entryY=-0.01;rounded=0;" edge="1" parent="1" source="QXE9mCimsEVIW5E-7dzx-159" target="QXE9mCimsEVIW5E-7dzx-160">
          <mxGeometry relative="1" as="geometry">
            <Array as="points">
              <mxPoint x="965" y="2042" />
            </Array>
          </mxGeometry>
        </mxCell>
        <mxCell id="QXE9mCimsEVIW5E-7dzx-183" value="" style="curved=1;startArrow=none;endArrow=block;exitX=0.5;exitY=1.01;entryX=0.5;entryY=0;rounded=0;" edge="1" parent="1" source="QXE9mCimsEVIW5E-7dzx-153" target="QXE9mCimsEVIW5E-7dzx-161">
          <mxGeometry relative="1" as="geometry">
            <Array as="points" />
          </mxGeometry>
        </mxCell>
        <mxCell id="QXE9mCimsEVIW5E-7dzx-184" value="Y Pressed" style="curved=1;startArrow=none;endArrow=block;exitX=1;exitY=0.84;entryX=0.32;entryY=-0.01;rounded=0;" edge="1" parent="1" source="QXE9mCimsEVIW5E-7dzx-161" target="QXE9mCimsEVIW5E-7dzx-162">
          <mxGeometry relative="1" as="geometry">
            <Array as="points">
              <mxPoint x="378" y="1588" />
            </Array>
          </mxGeometry>
        </mxCell>
        <mxCell id="QXE9mCimsEVIW5E-7dzx-185" value="N Pressed" style="curved=1;startArrow=none;endArrow=block;exitX=0.5;exitY=1;entryX=0.72;entryY=-0.01;rounded=0;" edge="1" parent="1" source="QXE9mCimsEVIW5E-7dzx-161" target="QXE9mCimsEVIW5E-7dzx-149">
          <mxGeometry relative="1" as="geometry">
            <Array as="points">
              <mxPoint x="188" y="1588" />
            </Array>
          </mxGeometry>
        </mxCell>
        <mxCell id="QXE9mCimsEVIW5E-7dzx-186" value="" style="curved=1;startArrow=none;endArrow=block;exitX=0.54;exitY=-0.01;entryX=1;entryY=0.87;rounded=0;" edge="1" parent="1" source="QXE9mCimsEVIW5E-7dzx-162" target="QXE9mCimsEVIW5E-7dzx-144">
          <mxGeometry relative="1" as="geometry">
            <Array as="points">
              <mxPoint x="464" y="1588" />
              <mxPoint x="464" y="373" />
            </Array>
          </mxGeometry>
        </mxCell>
        <mxCell id="QXE9mCimsEVIW5E-7dzx-187" value="" style="curved=1;startArrow=none;endArrow=block;exitX=0.5;exitY=0.99;entryX=0.35;entryY=-0.01;rounded=0;" edge="1" parent="1" source="QXE9mCimsEVIW5E-7dzx-158" target="QXE9mCimsEVIW5E-7dzx-163">
          <mxGeometry relative="1" as="geometry">
            <Array as="points">
              <mxPoint x="174" y="2042" />
            </Array>
          </mxGeometry>
        </mxCell>
        <mxCell id="QXE9mCimsEVIW5E-7dzx-188" value="" style="curved=1;startArrow=none;endArrow=block;exitX=0.58;exitY=-0.01;entryX=0.68;entryY=1;rounded=0;" edge="1" parent="1" source="QXE9mCimsEVIW5E-7dzx-163" target="QXE9mCimsEVIW5E-7dzx-150">
          <mxGeometry relative="1" as="geometry">
            <Array as="points">
              <mxPoint x="293" y="2042" />
              <mxPoint x="293" y="1010" />
            </Array>
          </mxGeometry>
        </mxCell>
      </root>
    </mxGraphModel>
  </diagram>
</mxfile>
